<svg width="21" height="27" viewBox="0 0 21 27" fill="none" xmlns="http://www.w3.org/2000/svg">
<path d="M10.9346 13.3268C11.6191 13.3268 12.2053 13.0764 12.6931 12.5757C13.181 12.0751 13.4245 11.4739 13.4237 10.7723C13.4237 10.0698 13.1798 9.46825 12.6919 8.96757C12.204 8.4669 11.6183 8.21699 10.9346 8.21784C10.2501 8.21784 9.66391 8.46818 9.17604 8.96885C8.68818 9.46952 8.44467 10.0707 8.4455 10.7723C8.4455 11.4748 8.68943 12.0764 9.17729 12.577C9.66515 13.0777 10.2509 13.3276 10.9346 13.3268ZM10.9346 26.0991C7.59505 23.1827 5.10098 20.4741 3.45237 17.9733C1.80376 15.4725 0.97904 13.1573 0.97821 11.0277C0.97821 7.83467 1.97924 5.29085 3.9813 3.3963C5.98337 1.50174 8.30113 0.554459 10.9346 0.554459C13.5689 0.554459 15.8871 1.50174 17.8891 3.3963C19.8912 5.29085 20.8918 7.83467 20.891 11.0277C20.891 13.1565 20.0662 15.4717 18.4168 17.9733C16.7674 20.475 14.2733 23.1836 10.9346 26.0991Z" fill="#544C4C"/>
</svg>
